<svg width="909" height="892" viewBox="0 0 909 892" fill="none" xmlns="http://www.w3.org/2000/svg">
  <path d="M452.551 204.022C474.004 204.022 491.396 186.638 491.396 165.194C491.396 143.751 474.004 126.367 452.551 126.367C431.098 126.367 413.707 143.751 413.707 165.194C413.707 186.638 431.098 204.022 452.551 204.022Z" fill="white"/>
  <path d="M429.429 210.079V242.022L450.505 299.85H384.111V251.11C384.111 251.11 383.56 231.834 402.844 223.435L429.429 210.079Z" fill="white"/>
  <path d="M475.149 210.079V242.022L454.074 299.85H520.33V251.11C520.33 251.11 520.881 231.834 501.596 223.435L475.149 210.079Z" fill="white"/>
  <path d="M444.977 223.434H461.919L455.858 233.623L461.919 245.051L453.517 293.241L444.977 245.051L450.486 234.174L444.977 223.434Z" fill="white"/>
  <path d="M451.042 357.541C374.593 357.541 312.332 295.307 312.332 218.891C312.332 142.476 374.593 80.2422 451.042 80.2422C527.491 80.2422 589.752 142.476 589.752 218.891C589.752 295.307 527.491 357.541 451.042 357.541ZM451.042 94.0107C382.169 94.0107 326.107 150.049 326.107 218.891C326.107 287.734 382.169 343.772 451.042 343.772C519.915 343.772 575.977 287.734 575.977 218.891C575.977 150.049 519.915 94.0107 451.042 94.0107Z" fill="#F31D42"/>
  <path d="M464.28 813.692C387.831 813.692 325.57 751.458 325.57 675.043C325.57 598.627 387.831 536.394 464.28 536.394C540.729 536.394 602.99 598.627 602.99 675.043C602.99 751.458 540.867 813.692 464.28 813.692ZM464.28 550.162C395.407 550.162 339.345 606.2 339.345 675.043C339.345 743.886 395.407 799.923 464.28 799.923C533.153 799.923 589.216 743.886 589.216 675.043C589.216 606.2 533.153 550.162 464.28 550.162Z" fill="white"/>
  <path d="M432.863 602.069C432.863 600.692 434.103 594.772 434.654 593.532C436.307 589.953 438.373 586.648 441.128 583.757C444.434 580.039 447.327 577.148 452.01 575.633C459.31 573.293 466.611 573.155 473.636 575.22C483.278 577.974 492.507 591.742 493.196 600.141C493.471 604.547 493.609 609.917 493.333 614.185C492.507 623.135 490.028 632.497 484.242 639.519C480.11 644.614 476.529 648.056 470.33 650.121C462.479 652.737 451.734 649.846 445.949 644.476C443.47 642.135 441.954 640.621 440.026 638.005C438.098 635.251 434.103 624.236 433.001 616.526C432.863 616.664 432.863 602.069 432.863 602.069Z" fill="white"/>
  <path d="M436.727 614.185C436.727 614.185 438.655 645.302 462.761 648.469C462.761 648.469 485.213 648.331 490.034 614.185C490.034 614.185 483.422 615.149 483.973 600.554C484.111 597.112 483.009 596.699 479.152 595.185C479.152 595.185 460.143 607.852 446.782 595.185C446.782 595.185 441.685 595.873 440.446 600.279C440.446 600.141 443.614 610.881 436.727 614.185Z" fill="white"/>
  <path d="M516.352 665.818C516.352 665.818 506.572 645.578 488.803 647.093C488.803 647.093 478.059 661.55 472.273 665.818H516.352Z" fill="white"/>
  <path d="M448.719 667.058H403.676C403.676 667.058 412.629 646.818 431.363 648.332" fill="white"/>
  <path d="M459.457 668.71C459.457 668.71 456.564 657.97 452.156 656.318H469.237C469.237 656.318 463.589 662.652 463.176 668.71H459.457Z" fill="white"/>
  <path d="M387.143 671.186C389.071 671.186 537.01 671.186 537.01 671.186C537.01 671.186 544.586 671.186 540.867 683.577L521.445 757.79H401.744L382.322 680.686C382.322 680.686 377.914 671.186 387.143 671.186Z" fill="white"/>
  <path d="M518.694 765.09H406.017C404.64 765.09 403.676 763.988 403.676 762.749C403.676 761.372 404.778 760.408 406.017 760.408H518.694C520.071 760.408 521.035 761.51 521.035 762.749C521.035 764.126 520.071 765.09 518.694 765.09Z" fill="white"/>
  <path d="M463.163 716.899C465.141 716.899 466.745 715.296 466.745 713.319C466.745 711.342 465.141 709.74 463.163 709.74C461.185 709.74 459.582 711.342 459.582 713.319C459.582 715.296 461.185 716.899 463.163 716.899Z" fill="#070707"/>
  <path d="M541.422 882.123C421.859 907.595 292.102 881.297 191.823 811.491C91.5443 741.684 22.1204 629.057 4.62672 508.032C-12.867 387.006 21.8449 259.51 98.2939 164.094C170.748 73.4965 280.807 12.6395 396.513 4.51609C467.315 -0.440587 541.422 14.9802 597.485 58.4888C653.547 101.997 687.984 176.072 673.52 245.466C659.608 311.83 605.612 363.049 546.932 397.195C488.252 431.341 422.961 452.82 364.143 486.691C305.326 520.561 250.778 570.954 235.764 637.181C228.05 671.189 231.632 707.813 245.82 739.756C269.099 792.215 318.825 829.114 372.408 849.354C425.991 869.594 483.982 874.826 541.147 879.232C530.953 878.406 515.801 885.841 505.333 887.493C492.798 889.421 479.987 890.522 467.315 890.66C441.832 890.935 416.211 887.631 391.555 881.159C342.242 868.217 295.959 842.332 260.283 805.708C217.306 761.648 199.262 683.03 211.245 623.274C220.612 576.875 250.365 538.323 285.628 508.169C324.335 475.125 369.791 450.479 415.798 429.276C470.345 404.217 527.234 382.325 574.757 344.875C586.327 335.787 597.209 325.736 606.989 314.859C654.098 262.126 656.027 190.529 618.146 132.288C577.925 70.6051 508.225 37.0099 434.669 33.9808C372.821 31.3648 310.973 47.1986 257.115 76.5256C257.115 76.5256 199.812 106.541 164.963 141.1C164.963 141.1 117.027 183.92 89.6159 231.146C89.6159 231.146 69.3672 260.336 50.4961 316.374C10.2743 435.058 25.7018 571.918 91.4066 678.486C151.601 776.105 254.084 842.883 364.281 870.833C421.996 885.703 482.467 889.558 541.422 882.123Z" fill="white"/>
  <path d="M418.546 3.27806C423.643 3.69111 429.841 2.03889 435.076 1.62583C451.467 0.524348 467.859 0.386662 484.251 1.07509C598.855 5.34334 709.327 49.6781 787.291 135.181C865.944 221.51 910.849 337.854 908.921 454.749C907.681 532.128 887.019 610.058 845.145 675.321C784.674 769.498 689.492 846.326 579.846 874.276C488.108 897.683 378.6 886.393 304.355 823.47C255.731 782.302 224.187 716.076 230.248 651.088C243.058 515.055 398.297 473.199 499.541 421.704C499.541 421.704 578.331 381.775 605.467 354.514C639.49 320.23 667.039 284.707 674.753 235.691C686.186 123.477 599.544 17.0466 418.546 3.27806C472.956 7.40862 525.437 9.88696 576.127 33.8442C625.716 57.2508 665.8 97.4549 684.809 149.225C697.068 182.82 700.374 219.444 694.589 254.829C669.381 407.385 483.011 450.893 368.958 520.425C318.129 551.404 266.337 597.115 262.342 660.588C250.772 845.913 490.725 876.617 619.655 822.094C690.043 792.354 754.095 746.091 798.449 683.307C841.976 621.623 844.594 603.724 844.594 603.724C844.594 603.724 865.393 560.491 874.898 498.12C883.438 441.531 881.51 379.986 865.393 324.636C823.381 179.791 718.281 63.0336 568 22.2787C535.079 13.3291 418.546 3.27806 418.546 3.27806Z" fill="#F31D42"/>
</svg>
