<svg width="279" height="207" viewBox="0 0 279 207" fill="none" xmlns="http://www.w3.org/2000/svg">
  <path d="M135.608 137.034C117.323 137.034 100.194 129.987 87.2567 117.116C74.3197 104.244 67.2368 87.2024 67.2368 69.0099C67.2368 50.8173 74.3197 33.7753 87.2567 20.9039C100.194 8.03251 117.323 0.985596 135.608 0.985596C147.895 0.985596 159.892 4.29333 170.444 10.4774C179.406 15.7266 186.634 22.1982 191.91 29.7485L189.741 31.2586C184.682 24.0678 177.744 17.8119 169.071 12.7784C158.953 6.81008 147.389 3.64616 135.608 3.64616C99.3988 3.64616 69.911 32.9843 69.911 69.0099C69.911 105.035 99.3988 134.374 135.608 134.374C153.315 134.374 170.733 126.679 183.454 113.305L185.405 115.102C179.045 121.862 171.528 127.183 163.217 130.994C154.399 135.021 145.148 137.034 135.608 137.034Z" fill="black"/>
  <path d="M132.934 137.034C122.237 137.034 109.662 132.648 101.422 127.974C92.8216 123.084 85.4497 116.253 78.8727 107.121C73.5967 99.7861 69.983 90.8696 68.2484 81.234C66.6584 71.958 66.8752 62.2505 68.9712 53.1902C71.0671 44.2018 74.8976 35.8605 80.535 28.526C86.1001 21.2633 93.0384 15.2231 101.133 10.6211C104.747 8.53575 108.577 6.80997 112.48 5.44374C126.357 0.482135 138.86 0.33832 148.617 5.0842C159.603 10.4053 167.698 21.7667 169.215 33.919C169.938 39.5278 168.999 44.9927 166.397 50.0981C164.012 54.844 160.326 59.1585 155.628 62.5381C149.774 66.8525 142.908 68.8659 136.258 70.8793C129.32 72.9647 122.815 74.9781 117.25 79.2206C108.577 85.908 104.675 94.1054 105.397 104.388C106.409 120.064 120.214 133.798 135.536 134.373L135.608 137.034C134.668 136.962 133.801 137.034 132.934 137.034ZM132.572 4.14941C125.562 4.14941 118.768 5.87518 113.347 7.81668C109.589 9.18291 105.903 10.8368 102.362 12.8502C86.606 21.7667 75.4036 36.6515 71.4285 53.7654C67.3089 71.886 70.9226 91.7325 80.8964 105.611C87.2565 114.455 94.3394 120.999 102.651 125.673C107.71 128.549 114.504 131.353 121.37 132.935C111.107 127.327 103.446 116.397 102.651 104.46C101.928 93.4582 106.265 84.1822 115.516 77.0634C121.442 72.4613 128.525 70.376 135.391 68.2907C141.823 66.3492 148.473 64.3358 153.893 60.309C163 53.6216 167.625 43.8422 166.397 34.0628C164.951 22.7734 157.435 12.2749 147.244 7.31332C142.618 5.01229 137.559 4.14941 132.572 4.14941Z" fill="black"/>
  <path d="M141.317 135.165C137.632 135.165 134.09 134.733 130.693 133.942C122.454 131.929 115.443 127.255 111.035 120.711C105.542 112.514 103.735 102.231 106.265 93.818C110.673 79.2927 126.284 73.3245 137.632 70.0886C155.194 65.0551 164.879 57.2172 168.059 45.4244C171.673 32.1935 165.457 16.302 153.604 8.39221C153.315 8.17649 153.026 8.03267 152.665 7.88886L152.448 7.74504C151.942 7.45741 151.508 7.24169 150.93 7.02597L144.353 3.93396L151.58 4.50922C151.797 4.50922 156.64 4.94066 163.578 7.74504C169.938 10.3337 179.478 15.511 188.368 25.5061C200.51 39.0966 206.147 59.5902 203.04 78.9332C201.594 87.8497 198.414 96.5505 193.716 104.245C183.887 120.352 167.336 131.641 149.412 134.446C146.738 134.877 143.992 135.165 141.317 135.165ZM158.374 8.67984C168.926 17.7402 174.13 33.0564 170.661 46.0716C168.782 53.1185 164.518 59.0868 158.085 63.6889C153.026 67.3562 146.593 70.2324 138.354 72.6054C127.585 75.6974 112.841 81.3062 108.794 94.5371C106.481 102.231 108.144 111.651 113.203 119.201C117.25 125.17 123.61 129.484 131.271 131.354C136.836 132.72 142.835 132.864 149.051 131.857C166.18 129.124 182.08 118.266 191.476 102.878C195.957 95.5438 199.065 87.1306 200.438 78.5737C203.401 59.9497 197.98 40.319 186.344 27.3038C177.961 17.6682 168.854 12.7066 162.783 10.2618C161.193 9.61463 159.675 9.11128 158.374 8.67984Z" fill="#AD262D"/>
  <path d="M137.126 34.9977C141.237 34.9977 144.57 31.6817 144.57 27.5913C144.57 23.5008 141.237 20.1848 137.126 20.1848C133.014 20.1848 129.681 23.5008 129.681 27.5913C129.681 31.6817 133.014 34.9977 137.126 34.9977Z" fill="black"/>
  <path d="M132.645 36.2203V42.3325L136.692 53.4062H123.972V44.0582C123.972 44.0582 123.827 40.391 127.586 38.7371L132.645 36.2203Z" fill="black"/>
  <path d="M141.462 36.2203V42.3325L137.415 53.4062H150.135V44.0582C150.135 44.0582 150.28 40.391 146.521 38.7371L141.462 36.2203Z" fill="black"/>
  <path d="M135.68 38.7369H138.932L137.776 40.6784L138.932 42.9076L137.27 52.1117L135.68 42.9076L136.692 40.8222L135.68 38.7369Z" fill="black"/>
  <path d="M136.837 64.4078C122.165 64.4078 110.167 52.5431 110.167 37.874C110.167 23.2768 122.093 11.3402 136.837 11.3402C151.508 11.3402 163.506 23.2049 163.506 37.874C163.506 52.4711 151.508 64.4078 136.837 64.4078ZM136.837 14.0008C123.61 14.0008 112.842 24.715 112.842 37.874C112.842 51.033 123.61 61.7472 136.837 61.7472C150.063 61.7472 160.832 51.033 160.832 37.874C160.832 24.715 150.063 14.0008 136.837 14.0008Z" fill="black"/>
  <path d="M136.837 129.915C122.165 129.915 110.167 118.051 110.167 103.382C110.167 88.7125 122.093 76.8478 136.837 76.8478C151.508 76.8478 163.506 88.7125 163.506 103.382C163.506 118.051 151.508 129.915 136.837 129.915ZM136.837 79.5803C123.61 79.5803 112.842 90.2944 112.842 103.453C112.842 116.613 123.61 127.327 136.837 127.327C150.063 127.327 160.832 116.613 160.832 103.453C160.832 90.2944 150.063 79.5803 136.837 79.5803Z" fill="#AD262D"/>
  <path d="M130.766 89.4316C130.766 89.144 130.982 88.0654 131.127 87.7778C131.416 87.1306 131.85 86.4834 132.356 85.9082C133.006 85.1891 133.512 84.6858 134.452 84.3981C135.825 83.9667 137.27 83.9667 138.643 84.3262C140.45 84.8296 142.257 87.4901 142.402 89.0721C142.474 89.935 142.474 90.9417 142.402 91.7327C142.257 93.4584 141.751 95.2561 140.667 96.5504C139.872 97.4852 139.149 98.2043 137.993 98.5639C136.475 99.0672 134.452 98.4919 133.295 97.4852C132.789 97.0538 132.5 96.7662 132.139 96.2628C131.777 95.7595 130.982 93.6023 130.766 92.1641C130.766 92.236 130.766 89.4316 130.766 89.4316Z" fill="black"/>
  <path d="M131.488 91.7326C131.488 91.7326 131.85 97.7009 136.475 98.2761C136.475 98.2761 140.812 98.2761 141.751 91.7326C141.751 91.7326 140.45 91.9483 140.595 89.1439C140.595 88.4967 140.378 88.4248 139.655 88.1372C139.655 88.1372 135.969 90.5821 133.44 88.1372C133.44 88.1372 132.5 88.281 132.211 89.072C132.283 89.072 132.861 91.1573 131.488 91.7326Z" fill="white"/>
  <path d="M146.811 101.656C146.811 101.656 144.931 97.7728 141.535 98.0604C141.535 98.0604 139.439 100.865 138.354 101.656H146.811Z" fill="black"/>
  <path d="M133.873 101.872H125.2C125.2 101.872 126.935 97.9886 130.549 98.2762" fill="black"/>
  <path d="M135.897 102.159C135.897 102.159 135.319 100.074 134.524 99.7861H137.848C137.848 99.7861 136.764 101.009 136.692 102.159H135.897Z" fill="black"/>
  <path d="M122.02 102.663C122.382 102.663 150.785 102.663 150.785 102.663C150.785 102.663 152.231 102.663 151.508 105.036L147.822 119.201H124.839L121.153 104.46C121.081 104.46 120.213 102.663 122.02 102.663Z" fill="black"/>
  <path d="M147.389 120.639H125.562C125.345 120.639 125.2 120.496 125.2 120.28V120.064C125.2 119.848 125.345 119.705 125.562 119.705H147.389C147.605 119.705 147.75 119.848 147.75 120.064V120.28C147.75 120.496 147.605 120.639 147.389 120.639Z" fill="black"/>
  <path d="M136.62 111.435C137.019 111.435 137.342 111.113 137.342 110.716C137.342 110.319 137.019 109.997 136.62 109.997C136.221 109.997 135.897 110.319 135.897 110.716C135.897 111.113 136.221 111.435 136.62 111.435Z" fill="white"/>
  <path d="M7.82727 206.425H0.599854V155.371H7.82727V206.425Z" fill="#020202"/>
  <path d="M13.4648 155.371H49.6742V162.202H13.4648V155.371ZM27.9919 159.541H35.2194V206.425H27.9919V159.541Z" fill="#020202"/>
  <path d="M62.8277 204.627C60.0813 203.045 57.9853 200.888 56.4675 198.011C54.9498 195.135 54.2271 191.899 54.2271 188.16V173.707C54.2271 169.968 54.9498 166.66 56.4675 163.855C57.9853 160.979 60.0813 158.822 62.8277 157.24C65.5741 155.658 68.6819 154.939 72.2956 154.939C75.837 154.939 79.0171 155.73 81.7635 157.24C84.5099 158.822 86.6059 160.979 88.1236 163.855C89.6414 166.732 90.3641 169.968 90.3641 173.707V188.16C90.3641 191.899 89.6414 195.207 88.1236 198.011C86.6059 200.888 84.5099 203.045 81.7635 204.627C79.0171 206.209 75.9093 206.928 72.2956 206.928C68.7542 206.928 65.5741 206.137 62.8277 204.627ZM77.933 198.443C79.523 197.508 80.8239 196.142 81.6912 194.416C82.5585 192.69 82.9922 190.677 82.9922 188.376V173.419C82.9922 171.118 82.5585 169.105 81.6912 167.379C80.8239 165.653 79.5953 164.287 77.933 163.352C76.3429 162.417 74.4638 161.914 72.3679 161.914C70.2719 161.914 68.3928 162.417 66.8028 163.352C65.2127 164.287 63.9118 165.653 63.0445 167.379C62.1772 169.105 61.7436 171.118 61.7436 173.419V188.376C61.7436 190.677 62.1772 192.69 63.0445 194.416C63.9118 196.142 65.1404 197.508 66.8028 198.443C68.3928 199.378 70.2719 199.881 72.3679 199.881C74.4638 199.881 76.2707 199.45 77.933 198.443Z" fill="#020202"/>
  <path d="M102 155.371H109.228V206.425H102V155.371ZM105.686 179.819H122.093C123.61 179.819 124.984 179.46 126.212 178.74C127.369 178.021 128.308 177.015 128.959 175.648C129.609 174.282 129.898 172.772 129.898 171.046C129.898 169.321 129.609 167.739 128.959 166.444C128.308 165.078 127.369 164.071 126.212 163.352C125.056 162.633 123.683 162.274 122.093 162.274H105.686V155.371H121.876C124.911 155.371 127.658 156.018 129.971 157.312C132.283 158.606 134.09 160.476 135.391 162.777C136.692 165.15 137.343 167.882 137.343 170.974C137.343 174.066 136.692 176.799 135.391 179.172C134.09 181.545 132.283 183.343 129.971 184.637C127.658 185.931 124.911 186.578 121.876 186.578H105.686V179.819Z" fill="#020202"/>
  <path d="M158.302 206.425H151.075V163.137L143.775 167.595V160.188L151.075 155.371H158.302V206.425Z" fill="#AD262D"/>
  <path d="M173.697 203.117C171.239 200.6 169.938 197.005 169.938 192.475V169.249C169.938 164.647 171.167 161.123 173.697 158.534C176.226 156.018 179.84 154.723 184.61 154.723C189.38 154.723 193.066 156.018 195.523 158.534C197.981 161.051 199.282 164.647 199.282 169.249V192.475C199.282 197.077 198.053 200.6 195.523 203.189C192.994 205.706 189.38 207 184.61 207C179.84 206.928 176.154 205.706 173.697 203.117ZM190.247 198.155C191.476 196.861 192.054 194.92 192.054 192.475V169.249C192.054 166.732 191.476 164.862 190.247 163.568C189.019 162.274 187.14 161.555 184.61 161.555C182.08 161.555 180.129 162.202 178.973 163.568C177.744 164.862 177.166 166.804 177.166 169.249V192.475C177.166 194.991 177.744 196.861 178.973 198.155C180.201 199.45 182.08 200.169 184.61 200.169C187.14 200.169 189.019 199.45 190.247 198.155Z" fill="#AD262D"/>
  <path d="M213.592 203.117C211.134 200.6 209.833 197.005 209.833 192.475V169.249C209.833 164.647 211.062 161.123 213.592 158.534C216.121 156.018 219.735 154.723 224.505 154.723C229.275 154.723 232.961 156.018 235.419 158.534C237.876 161.051 239.177 164.647 239.177 169.249V192.475C239.177 197.077 237.948 200.6 235.419 203.189C232.889 205.706 229.275 207 224.505 207C219.663 206.928 216.049 205.706 213.592 203.117ZM230.143 198.155C231.371 196.861 231.949 194.92 231.949 192.475V169.249C231.949 166.732 231.371 164.862 230.143 163.568C228.914 162.274 227.035 161.555 224.505 161.555C221.976 161.555 220.024 162.202 218.868 163.568C217.639 164.862 217.061 166.804 217.061 169.249V192.475C217.061 194.991 217.639 196.861 218.868 198.155C220.096 199.45 221.976 200.169 224.505 200.169C227.035 200.169 228.914 199.45 230.143 198.155Z" fill="#AD262D"/>
  <path d="M253.415 203.117C250.958 200.6 249.657 197.005 249.657 192.475V169.249C249.657 164.647 250.885 161.123 253.415 158.534C255.945 156.018 259.558 154.723 264.328 154.723C269.098 154.723 272.784 156.018 275.242 158.534C277.699 161.051 279 164.647 279 169.249V192.475C279 197.077 277.771 200.6 275.242 203.189C272.712 205.706 269.098 207 264.328 207C259.558 206.928 255.945 205.706 253.415 203.117ZM269.966 198.155C271.194 196.861 271.773 194.92 271.773 192.475V169.249C271.773 166.732 271.194 164.862 269.966 163.568C268.737 162.274 266.858 161.555 264.328 161.555C261.799 161.555 259.847 162.202 258.691 163.568C257.462 164.862 256.884 166.804 256.884 169.249V192.475C256.884 194.991 257.462 196.861 258.691 198.155C259.92 199.45 261.799 200.169 264.328 200.169C266.858 200.169 268.809 199.45 269.966 198.155Z" fill="#AD262D"/>
</svg>
