<svg width="60" height="60" viewBox="0 0 60 60" fill="none" xmlns="http://www.w3.org/2000/svg">
  <path d="M30 59.5863C22.0538 59.5863 14.5682 56.4943 8.9482 50.8852C3.32824 45.276 0.230347 37.8162 0.230347 29.8737C0.230347 21.9426 3.32824 14.4714 8.9482 8.86216C14.5682 3.25296 22.0538 0.161011 30 0.161011C35.3436 0.161011 40.5835 1.5863 45.1555 4.29894C49.048 6.59779 52.192 9.43687 54.4952 12.7127L53.5509 13.3679C51.3398 10.2185 48.311 7.50584 44.5682 5.28745C40.1689 2.68975 35.1363 1.31044 30 1.31044C14.2227 1.31044 1.38198 14.1265 1.38198 29.8737C1.38198 45.6208 14.2227 58.4369 30 58.4369C37.7044 58.4369 45.2937 55.0806 50.8215 49.2415L51.6622 50.0346C48.8753 52.9771 45.6277 55.3104 42.0115 56.9656C38.1766 58.7012 34.1344 59.5863 30 59.5863Z" fill="white"/>
  <path d="M28.8253 59.5746C24.1612 59.5746 18.6794 57.6551 15.0979 55.6091C11.3435 53.4712 8.13048 50.4942 5.27444 46.5057C2.98269 43.3103 1.38192 39.4022 0.656396 35.1953C-0.0460987 31.1379 0.057548 26.908 0.967337 22.9424C1.86561 19.0114 3.55851 15.3907 5.99997 12.1608C8.41839 8.96544 11.4357 6.33325 14.9712 4.31026C16.5489 3.41371 18.2188 2.6436 19.9232 2.0344C25.9808 -0.115024 31.4165 -0.172496 35.643 1.89647C40.4222 4.2298 43.9347 9.17233 44.6142 14.4827C44.9251 16.9195 44.5105 19.3103 43.3819 21.5631C42.3455 23.6321 40.7332 25.5172 38.7063 27.0114C36.1727 28.885 33.1785 29.7815 30.2879 30.6666C27.2706 31.5746 24.4261 32.4367 22.0076 34.3103C18.2418 37.2298 16.5489 40.8275 16.8368 45.2988C17.286 52.1379 23.2975 58.1379 29.9654 58.3907L29.9884 59.5401C29.6084 59.5516 29.2169 59.5746 28.8253 59.5746ZM28.6756 1.52865C25.6238 1.52865 22.6641 2.28727 20.3147 3.12636C18.6679 3.71256 17.0671 4.44819 15.547 5.31026C8.7063 9.19532 3.80035 15.7126 2.08442 23.1838C0.276358 31.0919 1.85409 39.77 6.20726 45.8275C8.97118 49.6781 12.0691 52.5516 15.6737 54.6091C17.8848 55.8735 20.833 57.0804 23.8272 57.793C19.3589 55.3333 16.0307 50.5746 15.6967 45.3677C15.3858 40.5516 17.2744 36.5287 21.3051 33.4022C23.8848 31.4022 26.9712 30.4712 29.9539 29.5631C32.7524 28.7126 35.643 27.839 38.0268 26.0919C41.9769 23.1838 44.0153 18.8965 43.474 14.6321C42.8522 9.70107 39.5815 5.10337 35.1478 2.93095C33.0633 1.91946 30.8522 1.52865 28.6756 1.52865Z" fill="white"/>
  <path d="M32.499 58.7471C30.8982 58.7471 29.355 58.5632 27.8694 58.2069C24.2648 57.3333 21.236 55.2874 19.3128 52.4368C16.9174 48.8736 16.1228 44.3678 17.2283 40.6897C19.1401 34.3448 25.9347 31.7356 30.8752 30.3218C38.5335 28.1264 42.7485 24.7126 44.1305 19.5517C45.6852 13.7701 42.9788 6.8161 37.831 3.39081C37.7159 3.31035 37.5777 3.24138 37.4395 3.16093L37.3473 3.11495C37.1401 3.00001 36.9212 2.89656 36.6794 2.78161L33.8234 1.42529L36.9788 1.68966C37.071 1.70116 39.1669 1.88506 42.1957 3.11495C44.9827 4.24138 49.1055 6.49426 52.9865 10.8621C58.2725 16.8046 60.7255 25.7471 59.3896 34.2069C58.7677 38.092 57.3742 41.9081 55.3243 45.2529C51.0402 52.2759 43.831 57.2069 36.046 58.4598C34.8483 58.6552 33.6621 58.7471 32.499 58.7471ZM39.904 3.52874C44.499 7.47127 46.7677 14.1839 45.2475 19.8621C44.4184 22.9425 42.5758 25.5402 39.7773 27.5517C37.5777 29.1379 34.7677 30.4138 31.1976 31.4368C26.5105 32.7816 20.0844 35.2299 18.3339 41.0345C17.3205 44.3908 18.0575 48.5172 20.2687 51.8046C22.0191 54.4138 24.8176 56.2874 28.1343 57.1035C30.5642 57.6897 33.1669 57.7701 35.8848 57.3333C43.3474 56.1379 50.2571 51.4023 54.3685 44.6667C56.3378 41.4483 57.6852 37.7701 58.2725 34.0345C59.5623 25.9081 57.213 17.3218 52.1458 11.6322C48.426 7.45977 44.476 5.28736 41.8272 4.2069C41.1247 3.93104 40.4913 3.71265 39.904 3.52874Z" fill="#F31D42"/>
  <path d="M30.6564 15.0346C32.45 15.0346 33.904 13.5834 33.904 11.7933C33.904 10.0031 32.45 8.55188 30.6564 8.55188C28.8628 8.55188 27.4088 10.0031 27.4088 11.7933C27.4088 13.5834 28.8628 15.0346 30.6564 15.0346Z" fill="white"/>
  <path d="M28.7216 15.5403V18.2069L30.4836 23.0345H24.9442V18.9656C24.9442 18.9656 24.8982 17.3564 26.5104 16.6552L28.7216 15.5403Z" fill="white"/>
  <path d="M32.5567 15.5403V18.2069L30.7947 23.0345H36.334V18.9656C36.334 18.9656 36.3801 17.3564 34.7678 16.6552L32.5567 15.5403Z" fill="white"/>
  <path d="M30.0345 16.6437H31.4395L30.9443 17.5057L31.4395 18.4598L30.737 22.4828L30.0345 18.4598L30.4837 17.5517L30.0345 16.6437Z" fill="white"/>
  <path d="M30.5413 27.8505C24.1497 27.8505 18.9443 22.6551 18.9443 16.2758C18.9443 9.89645 24.1497 4.70105 30.5413 4.70105C36.9328 4.70105 42.1382 9.89645 42.1382 16.2758C42.1267 22.6551 36.9328 27.8505 30.5413 27.8505ZM30.5413 5.85048C24.7831 5.85048 20.096 10.5286 20.096 16.2758C20.096 22.0229 24.7831 26.701 30.5413 26.701C36.2994 26.701 40.9865 22.0229 40.9865 16.2758C40.975 10.5286 36.2994 5.85048 30.5413 5.85048Z" fill="white"/>
  <path d="M30.5413 56.4712C24.1497 56.4712 18.9443 51.2758 18.9443 44.8965C18.9443 38.5172 24.1497 33.3218 30.5413 33.3218C36.9328 33.3218 42.1382 38.5172 42.1382 44.8965C42.1382 51.2758 36.9328 56.4712 30.5413 56.4712ZM30.5413 34.4712C24.7831 34.4712 20.096 39.1494 20.096 44.8965C20.096 50.6436 24.7831 55.3218 30.5413 55.3218C36.2994 55.3218 40.9865 50.6436 40.9865 44.8965C40.9865 39.1494 36.2994 34.4712 30.5413 34.4712Z" fill="#F31D42"/>
  <path d="M27.9041 38.8045C27.9041 38.6896 28.0077 38.1953 28.0538 38.0919C28.192 37.793 28.3647 37.5171 28.595 37.2758C28.8714 36.9654 29.1133 36.724 29.5048 36.5976C30.1152 36.4022 30.7255 36.3907 31.3129 36.5631C32.119 36.793 32.8906 37.9424 32.9482 38.6436C32.9712 39.0114 32.9827 39.4597 32.9597 39.816C32.8906 40.5631 32.6833 41.3447 32.1996 41.9309C31.8541 42.3562 31.5547 42.6436 31.0365 42.816C30.3801 43.0344 29.4818 42.793 28.9981 42.3447C28.7908 42.1493 28.6641 42.0229 28.5029 41.8045C28.3417 41.5746 28.0077 40.6551 27.9156 40.0114C27.9041 40.0229 27.9041 38.8045 27.9041 38.8045Z" fill="white"/>
  <path d="M28.2266 39.8046C28.2266 39.8046 28.3878 42.4023 30.4031 42.6667C30.4031 42.6667 32.2803 42.6552 32.6834 39.8046C32.6834 39.8046 32.1306 39.885 32.1767 38.6667C32.1882 38.3793 32.096 38.3448 31.7736 38.2184C31.7736 38.2184 30.1843 39.2759 29.0673 38.2184C29.0673 38.2184 28.6411 38.2759 28.5375 38.6437C28.5375 38.6437 28.8024 39.5402 28.2266 39.8046Z" fill="white"/>
  <path d="M34.8829 44.115C34.8829 44.115 34.0652 42.4254 32.5796 42.5518C32.5796 42.5518 31.6813 43.7587 31.1976 44.115H34.8829Z" fill="white"/>
  <path d="M29.2285 44.2299H25.4626C25.4626 44.2299 26.2112 42.5402 27.7774 42.6667" fill="white"/>
  <path d="M30.1381 44.3677C30.1381 44.3677 29.8962 43.4712 29.5277 43.3333H30.9557C30.9557 43.3333 30.4836 43.862 30.449 44.3677H30.1381Z" fill="white"/>
  <path d="M24.0806 44.5748C24.2419 44.5748 36.6104 44.5748 36.6104 44.5748C36.6104 44.5748 37.2438 44.5748 36.9328 45.6093L35.309 51.8047H25.3014L23.6776 45.3679C23.6891 45.3679 23.309 44.5748 24.0806 44.5748Z" fill="white"/>
  <path d="M35.0788 52.4139H25.6584C25.5433 52.4139 25.4626 52.3219 25.4626 52.2185C25.4626 52.1035 25.5548 52.0231 25.6584 52.0231H35.0788C35.1939 52.0231 35.2745 52.115 35.2745 52.2185C35.2861 52.3219 35.1939 52.4139 35.0788 52.4139Z" fill="white"/>
  <path d="M30.4376 48.3794C30.603 48.3794 30.737 48.2456 30.737 48.0806C30.737 47.9155 30.603 47.7817 30.4376 47.7817C30.2722 47.7817 30.1382 47.9155 30.1382 48.0806C30.1382 48.2456 30.2722 48.3794 30.4376 48.3794Z" fill="black"/>
</svg>
